<?xml version="1.0" standalone="no"?>
<!DOCTYPE svg PUBLIC "-//W3C//DTD SVG 20010904//EN"
 "http://www.w3.org/TR/2001/REC-SVG-20010904/DTD/svg10.dtd">
<svg version="1.0" xmlns="http://www.w3.org/2000/svg"
 width="1127.000000pt" height="634.000000pt" viewBox="0 0 1127.000000 634.000000"
 preserveAspectRatio="xMidYMid meet">

<g transform="translate(0.000000,634.000000) scale(0.100000,-0.100000)"
fill="#000000" stroke="none">
<path d="M4375 6041 c-43 -26 -60 -48 -92 -116 l-27 -60 -7 -340 c-4 -187 -12
-362 -17 -390 -6 -27 -16 -84 -22 -125 -6 -41 -18 -111 -27 -155 -22 -113 -36
-286 -37 -455 -1 -155 8 -202 51 -272 13 -21 23 -41 23 -46 0 -5 12 -19 26
-33 23 -22 25 -29 19 -74 -3 -27 -8 -155 -11 -282 -5 -209 -3 -244 16 -342 18
-92 19 -118 10 -172 -6 -35 -15 -91 -20 -124 -10 -65 -52 -199 -100 -321 -17
-41 -58 -158 -91 -259 -33 -101 -67 -189 -75 -196 -10 -8 -14 -8 -14 0 0 21
-74 93 -122 117 -64 33 -118 44 -263 55 -66 5 -167 18 -225 29 -58 10 -123 21
-145 24 -22 3 -62 9 -90 15 -118 25 -164 33 -225 38 -36 2 -69 9 -74 14 -13
12 -213 12 -221 -1 -3 -6 -18 -10 -33 -10 -51 0 -158 -50 -223 -104 -59 -49
-179 -199 -179 -224 0 -28 -47 -32 -359 -32 l-321 0 0 -95 0 -95 294 0 c324 0
306 4 306 -64 0 -41 21 -70 62 -86 18 -6 49 -18 68 -25 192 -73 204 -76 290
-77 71 0 104 6 195 35 120 38 293 103 310 116 5 4 45 20 88 35 l78 26 654 2
654 1 35 -23 c19 -14 48 -47 64 -75 33 -56 156 -336 165 -375 3 -14 12 -52 21
-85 8 -33 15 -73 16 -89 0 -30 22 -137 47 -226 8 -30 19 -76 23 -102 5 -26 16
-60 24 -75 8 -16 25 -52 37 -81 27 -65 103 -137 162 -153 24 -6 70 -9 107 -5
53 5 71 2 90 -12 40 -27 173 -92 192 -92 9 0 20 -4 23 -10 3 -5 42 -10 85 -10
43 0 82 5 85 10 3 6 16 10 28 10 30 0 114 41 160 78 l37 30 37 -19 c24 -12 58
-19 96 -19 162 0 310 181 467 570 141 349 186 439 276 555 95 123 128 154 210
198 l72 37 406 0 406 0 68 -34 c177 -88 342 -115 477 -76 84 23 147 47 210 77
l69 33 533 0 533 0 0 95 0 95 -439 0 c-242 0 -446 3 -455 6 -12 5 -16 21 -16
73 0 130 -40 223 -124 289 -84 65 -167 103 -249 112 -40 5 -93 14 -120 21 -38
10 -66 10 -140 0 -50 -7 -119 -16 -152 -20 -33 -5 -75 -15 -94 -22 l-33 -14
-44 50 c-46 54 -75 121 -105 248 -19 78 -86 235 -113 267 -24 27 -116 206
-116 226 0 11 21 36 50 59 28 22 70 65 94 95 48 62 122 191 137 242 27 90 59
226 59 251 0 16 5 37 10 48 6 10 17 78 26 151 14 132 19 160 50 293 21 91 42
211 54 305 5 41 14 99 20 129 7 30 13 135 14 235 1 209 -11 270 -72 346 -54
69 -57 70 -154 70 -73 0 -100 -5 -151 -26 -117 -49 -366 -234 -530 -394 -112
-108 -118 -117 -484 -666 -24 -35 -47 -64 -52 -64 -6 0 -49 13 -98 29 -162 55
-260 79 -363 90 -41 5 -104 16 -140 26 -53 13 -94 15 -220 11 -85 -3 -187 -9
-226 -12 -67 -5 -73 -4 -88 17 -9 13 -16 31 -16 41 0 19 -63 220 -91 288 -10
25 -30 77 -44 115 -67 174 -202 406 -292 500 -127 132 -295 281 -382 339 -154
101 -235 125 -296 87z"/>
</g>
</svg>
