<svg viewBox="0 0 109 24" xmlns="http://www.w3.org/2000/svg" xmlns:xlink="http://www.w3.org/1999/xlink" xmlns:figma="http://www.figma.com/figma/ns">
    <title>
        Logo
    </title>
        <g transform="translate(-1470)" figma:type="canvas">
            <g style="mix-blend-mode:normal" figma:type="vector" transform="translate(1470)" fill="#f40">
                <use xlink:href="#b" style="mix-blend-mode:normal"/>
                <use xlink:href="#c" style="mix-blend-mode:normal"/>
                <use xlink:href="#d" style="mix-blend-mode:normal"/>
                <use xlink:href="#e" style="mix-blend-mode:normal"/>
                <use xlink:href="#f" style="mix-blend-mode:normal"/>
            </g>
        </g>
    <defs>
    <path id="b" d="M2910 5011 c-48 -10 -73 -25 -103 -61 -32 -38 -42 -81 -28 -123 15
    -45 54 -81 130 -117 52 -25 62 -34 59 -53 -3 -19 -10 -22 -50 -25 -32 -2 -59
    3 -86 17 -48 25 -62 15 -62 -44 0 -54 20 -72 94 -86 139 -25 246 39 246 149 0
    58 -33 99 -120 146 -54 30 -75 47 -75 61 0 17 8 21 49 23 26 2 61 -1 76 -7 19
    -6 31 -6 39 2 17 17 13 82 -6 100 -21 18 -113 29 -163 18z"/>
    <path id="c" d="M1172 4998 c-17 -17 -17 -449 0 -466 7 -7 30 -12 53 -12 23 0 46 5
    53 12 8 8 12 52 13 127 l0 116 42 -115 c23 -63 46 -121 50 -128 12 -19 81 -15
    99 6 8 9 33 69 54 132 l39 115 3 -119 c1 -67 7 -126 14 -133 13 -16 90 -17
    106 -1 17 17 17 449 0 466 -17 17 -142 16 -156 -1 -6 -7 -29 -65 -52 -128 -22
    -62 -43 -121 -46 -129 -3 -8 -26 43 -51 115 -25 72 -50 136 -55 143 -14 16
    -150 16 -166 0z"/>
    <path id="d" d="M1792 4998 c-17 -17 -17 -449 0 -466 7 -7 30 -12 53 -12 23 0 46 5
    53 12 17 17 17 449 0 466 -7 7 -30 12 -53 12 -23 0 -46 -5 -53 -12z"/>
    <path id="e" d="M1992 4998 c-17 -17 -17 -449 0 -466 16 -16 83 -15 96 1 7 7 13 66
    14 133 l3 119 38 -111 c49 -141 57 -154 106 -154 21 0 43 6 49 13 6 6 28 64
    51 127 l40 115 0 -116 c1 -75 5 -119 13 -127 16 -16 100 -16 116 0 17 17 17
    449 0 466 -16 16 -154 16 -165 0 -4 -7 -28 -73 -54 -147 l-45 -134 -43 129
    c-24 71 -51 137 -59 147 -12 13 -31 17 -82 17 -38 0 -71 -5 -78 -12z"/>
    <path id="f" d="M2602 4998 c-17 -17 -17 -449 0 -466 7 -7 33 -12 58 -12 25 0 51 5
    58 12 17 17 17 449 0 466 -16 16 -100 16 -116 0z"/>
    </defs>
</svg>
