<?xml version="1.0" standalone="no"?>
<!DOCTYPE svg PUBLIC "-//W3C//DTD SVG 20010904//EN"
 "http://www.w3.org/TR/2001/REC-SVG-20010904/DTD/svg10.dtd">
<svg version="1.0" xmlns="http://www.w3.org/2000/svg"
 width="853.000000pt" height="480.000000pt" viewBox="0 0 853.000000 480.000000"
 preserveAspectRatio="xMidYMid meet">

<g transform="translate(0.000000,480.000000) scale(0.100000,-0.100000)"
fill="#000000" stroke="none">
<path d="M3819 4483 c-22 -25 -25 -299 -5 -450 9 -67 16 -161 16 -210 0 -109
16 -253 32 -290 25 -57 84 -142 197 -283 219 -272 255 -332 256 -432 0 -59 -3
-70 -31 -105 -17 -21 -70 -65 -117 -98 -175 -122 -184 -142 -171 -348 20 -321
9 -430 -53 -519 -27 -39 -186 -171 -237 -196 -43 -22 -155 -10 -223 23 -81 40
-183 176 -235 315 -22 58 -23 170 -2 241 26 87 94 208 149 264 64 66 92 76
118 44 37 -46 123 -134 172 -178 138 -120 225 -105 225 39 0 78 -42 162 -126
251 -74 79 -73 83 8 94 51 7 98 37 98 61 0 12 6 11 29 -5 39 -28 111 -61 135
-61 16 0 17 5 12 33 -12 60 -64 156 -109 201 -85 85 -215 100 -283 32 -29 -29
-43 -62 -59 -138 -4 -23 -14 -30 -71 -48 -118 -36 -162 -20 -171 60 -10 85 71
502 114 589 17 35 62 92 119 151 50 52 95 105 98 117 10 32 -25 50 -111 59
-69 6 -72 8 -78 35 -10 43 -46 81 -135 143 -128 90 -273 211 -302 251 -42 60
-229 256 -262 276 -43 26 -78 24 -107 -7 -22 -23 -24 -35 -27 -135 -7 -205 41
-402 150 -614 39 -77 90 -197 113 -267 23 -70 50 -139 59 -153 26 -39 58 -32
111 23 l46 47 -35 -76 c-51 -110 -80 -203 -72 -233 6 -23 12 -26 50 -26 53 0
88 -29 118 -98 30 -68 28 -141 -7 -226 -32 -77 -43 -73 -44 19 -1 57 -39 148
-66 158 -59 23 -82 -14 -65 -102 16 -78 70 -264 80 -275 4 -4 15 5 24 20 8 16
15 25 16 21 0 -14 -19 -46 -168 -271 -80 -121 -156 -245 -169 -275 -13 -31
-31 -69 -40 -84 -8 -16 -17 -54 -20 -85 -4 -51 -1 -62 26 -105 22 -34 39 -49
60 -53 27 -6 31 -12 42 -60 25 -110 65 -140 148 -110 65 23 141 20 246 -9 151
-42 228 -29 362 57 38 25 100 54 138 66 77 23 158 69 230 128 43 36 265 286
265 298 0 20 -27 -6 -103 -98 -123 -148 -214 -229 -313 -277 -45 -23 -87 -40
-92 -38 -6 2 26 33 71 69 179 143 195 203 173 625 -8 147 -7 174 7 201 20 39
83 95 179 161 53 36 85 66 103 98 72 122 34 216 -214 523 -213 266 -228 295
-237 472 l-5 105 26 -83 c30 -98 70 -181 135 -278 105 -154 253 -322 323 -364
38 -24 80 -26 97 -5 52 63 -105 533 -345 1031 -118 246 -157 295 -195 250 -19
-24 -40 -115 -47 -209 -3 -49 -9 -83 -13 -75 -24 45 -17 375 8 400 19 19 76
-21 207 -143 72 -66 174 -156 227 -200 160 -131 286 -291 393 -500 84 -165
117 -271 123 -406 5 -111 4 -114 -23 -153 -44 -64 -71 -220 -45 -260 23 -34
48 36 72 202 6 45 16 79 24 82 17 7 122 -148 184 -272 247 -494 186 -1066
-179 -1667 -166 -274 -427 -592 -662 -806 l-89 -81 -68 43 c-81 53 -275 243
-325 320 -54 84 -102 184 -130 274 -28 88 -50 246 -45 314 3 43 4 42 55 -85
113 -277 260 -465 418 -535 l49 -22 116 120 c283 292 492 587 601 848 60 143
88 261 101 426 28 370 -64 684 -243 826 -55 43 -73 43 -66 1 33 -191 5 -503
-63 -708 -33 -101 -93 -218 -154 -304 -31 -42 -56 -79 -56 -82 0 -31 90 87
149 197 55 102 107 263 132 409 17 101 20 155 17 310 l-3 188 27 -19 c79 -57
161 -191 201 -329 62 -212 62 -527 0 -739 -99 -344 -364 -736 -736 -1089 l-35
-34 -53 28 c-66 33 -189 155 -248 244 -56 87 -132 244 -171 357 -18 51 -36 91
-40 88 -14 -9 -19 -121 -9 -218 31 -304 190 -569 464 -774 111 -83 106 -82
162 -35 92 76 339 338 446 472 326 407 509 775 584 1175 12 62 17 142 17 260
-1 190 -19 301 -75 462 -61 175 -233 468 -269 460 -13 -3 -15 13 -16 97 -1
128 -26 222 -100 376 -60 124 -170 297 -256 398 -29 35 -93 96 -143 136 -49
40 -151 129 -225 197 -74 68 -149 134 -167 147 -37 26 -75 28 -94 5z m-1004
-103 c32 -20 203 -200 189 -200 -3 0 -40 30 -80 66 -41 36 -74 61 -74 55 0 -6
58 -76 129 -155 71 -80 144 -164 164 -188 62 -76 117 -270 117 -411 l0 -73
-74 -106 c-78 -110 -128 -161 -150 -152 -18 7 -31 38 -77 178 -21 66 -66 171
-100 234 -103 194 -161 410 -163 607 -1 154 34 197 119 145z m1157 -83 c119
-206 314 -659 403 -937 43 -136 58 -266 32 -276 -45 -17 -185 113 -328 304
-92 123 -157 248 -196 377 -25 81 -27 105 -27 240 0 210 30 373 67 360 7 -3
29 -34 49 -68z m-896 -209 c25 -27 58 -78 52 -78 -3 0 -34 33 -69 72 -40 46
-53 65 -34 51 17 -11 40 -32 51 -45z m161 -129 c39 -31 106 -80 147 -109 74
-51 116 -100 116 -135 0 -16 -7 -17 -60 -12 -74 8 -115 28 -135 66 -8 16 -37
58 -64 93 -52 69 -111 175 -89 162 7 -4 45 -34 85 -65z m111 -251 c20 -9 61
-20 90 -24 45 -5 51 -8 40 -21 -7 -9 -36 -27 -66 -41 -30 -14 -69 -44 -91 -69
l-38 -45 -6 84 c-3 45 -17 122 -31 171 -15 48 -26 91 -26 95 0 4 21 -24 46
-63 32 -50 55 -75 82 -87z m307 -37 c16 -3 31 -13 33 -21 1 -8 -39 -58 -91
-111 -125 -129 -148 -178 -192 -403 -41 -207 -57 -329 -49 -365 19 -90 80
-109 208 -64 47 16 56 8 56 -49 0 -44 7 -50 49 -38 28 8 33 6 45 -18 8 -15 38
-49 66 -76 92 -90 135 -213 101 -293 -11 -28 -19 -33 -46 -33 -50 0 -142 67
-249 182 l-94 101 -31 -13 c-47 -19 -132 -118 -178 -206 -87 -167 -95 -300
-28 -435 106 -211 195 -288 349 -304 l69 -7 -47 -29 c-115 -72 -208 -86 -326
-48 -93 29 -205 36 -254 15 -80 -33 -108 -15 -137 90 l-19 67 28 -26 c53 -51
117 -56 128 -11 8 33 -1 53 -31 64 -25 10 -33 34 -15 45 6 4 27 -7 48 -23 53
-42 74 -46 106 -21 38 30 56 71 56 128 0 102 -66 136 -262 136 -65 -1 -118 1
-118 4 0 13 76 136 193 310 132 200 166 260 167 296 0 11 16 56 35 100 28 64
35 93 35 145 0 119 -69 220 -151 220 -33 0 -39 3 -39 21 0 33 47 163 91 252
110 221 188 324 275 362 29 13 57 33 64 44 9 18 19 21 68 20 31 -1 70 -4 87
-8z m1110 -705 c-23 -125 -36 -149 -31 -55 4 70 29 159 42 146 3 -3 -2 -44
-11 -91z m-890 -55 c22 -10 57 -37 78 -60 37 -41 97 -152 97 -179 0 -22 -67 5
-148 60 -58 40 -121 68 -155 68 -15 0 -45 -9 -67 -20 -51 -26 -51 -26 -43 13
9 51 43 105 77 121 42 21 112 20 161 -3z m-748 -156 c12 -22 23 -47 23 -55 0
-8 -11 3 -23 25 -27 47 -53 56 -66 23 -9 -22 -10 -21 -10 8 -1 17 2 34 6 38
17 16 49 -2 70 -39z m568 -12 c-9 -17 -12 -41 -9 -64 5 -32 3 -37 -17 -42 -13
-3 -25 -5 -26 -3 -2 2 -6 25 -9 52 -6 48 -5 50 27 66 47 23 50 22 34 -9z m138
-6 c63 -35 35 -63 -80 -81 -39 -6 -43 -4 -49 19 -9 37 4 75 29 85 26 10 49 5
100 -23z m-710 -44 c14 -32 24 -60 21 -62 -11 -11 -55 48 -61 82 -9 55 10 45
40 -20z m6 -76 c41 -15 50 -65 20 -113 -12 -19 -23 -34 -25 -32 -5 5 -64 220
-64 232 0 6 9 -8 20 -32 13 -30 29 -47 49 -55z m7 -753 c68 -33 79 -127 23
-198 -27 -35 -49 -33 -99 9 -45 38 -59 42 -78 23 -20 -20 -14 -47 16 -65 37
-24 42 -34 31 -55 -16 -29 -47 -21 -98 27 -64 60 -123 171 -119 222 5 56 29
65 169 60 88 -3 126 -9 155 -23z m-322 -123 c15 -29 22 -50 16 -46 -7 4 -14
-2 -17 -15 l-6 -22 -13 23 c-11 21 -21 130 -10 118 2 -2 16 -28 30 -58z"/>
</g>
</svg>
